<?xml version="1.0" encoding="UTF-8"?>
<svg width="30px" height="30px" viewBox="0 0 30 30" version="1.1" xmlns="http://www.w3.org/2000/svg" xmlns:xlink="http://www.w3.org/1999/xlink">
    <title>icon_white_reset</title>
    <g id="icon_white_reset" stroke="none" stroke-width="1" fill="none" fill-rule="evenodd">
        <g id="noun_reset_3039083" transform="translate(15.000000, 15.000000) rotate(-270.000000) translate(-15.000000, -15.000000) translate(6.000000, 7.000000)" fill="#FFFFFF" fill-rule="nonzero">
            <path d="M2.33855006,6.6873065 L0.849509806,6.6873065 C0.176320952,6.6873065 -0.104545922,7.33708978 0.0347729635,7.80185759 L2.73198659,12.7448916 C3.05743551,13.1673065 3.6113674,13.166192 4.02486585,12.5788235 L6.72207947,7.80185759 C6.86139836,7.22229102 6.58164603,6.6873065 5.90734263,6.6873065 L4.58994325,6.6873065 C5.07923117,3.97226006 7.34845718,2.22910217 10.0657327,2.22910217 C13.1385501,2.22910217 15.6384882,4.72904025 15.6384882,7.80185759 C15.6384882,10.8746749 13.409386,13.374613 10.0657327,13.374613 L10.0657327,15.6037152 C14.5239371,15.6037152 17.8675903,12.1040248 17.8675903,7.80185759 C17.8675903,3.4996904 14.3667854,0 10.0657327,0 C6.1313674,0 2.86684727,2.79752322 2.33855006,6.6873065" id="Path"></path>
        </g>
    </g>
</svg>