<?xml version="1.0" encoding="UTF-8"?>
<svg width="30px" height="30px" viewBox="0 0 30 30" version="1.1" xmlns="http://www.w3.org/2000/svg" xmlns:xlink="http://www.w3.org/1999/xlink">
    <title>icon_white_zoom_in</title>
    <g id="icon_white_zoom_in" stroke="none" stroke-width="1" fill="none" fill-rule="evenodd">
        <g id="noun_Zoom_2707978" transform="translate(5.000000, 5.000000)" fill="#FFFFFF" fill-rule="nonzero">
            <g id="Group">
                <path d="M11.4791667,7.875 L6.29166667,7.875 C5.72916667,7.875 5.27083333,8.33333333 5.27083333,8.89583333 C5.27083333,9.45833333 5.72916667,9.91666667 6.29166667,9.91666667 L11.4791667,9.91666667 C12.0416667,9.91666667 12.5,9.45833333 12.5,8.89583333 C12.5,8.33333333 12.0625,7.875 11.4791667,7.875 Z" id="Path"></path>
                <path d="M11.4791667,7.875 L6.29166667,7.875 C5.72916667,7.875 5.27083333,8.33333333 5.27083333,8.89583333 C5.27083333,9.45833333 5.72916667,9.91666667 6.29166667,9.91666667 L11.4791667,9.91666667 C12.0416667,9.91666667 12.5,9.45833333 12.5,8.89583333 C12.5,8.33333333 12.0625,7.875 11.4791667,7.875 Z" id="Path" transform="translate(8.885417, 8.895833) rotate(-270.000000) translate(-8.885417, -8.895833) "></path>
                <path d="M19.6041667,18.1458333 L15.7708333,14.3333333 C16.9583333,12.8333333 17.6666667,10.9375 17.6666667,8.89583333 C17.6666667,4.04166667 13.7291667,0.104166667 8.875,0.104166667 C4.02083333,0.104166667 0.104166667,4.04166667 0.104166667,8.89583333 C0.104166667,13.75 4.04166667,17.6875 8.89583333,17.6875 C10.9583333,17.6875 12.8333333,16.9791667 14.3333333,15.7916667 L18.1458333,19.6041667 C18.3541667,19.8125 18.6041667,19.8958333 18.875,19.8958333 C19.1458333,19.8958333 19.3958333,19.7916667 19.6041667,19.6041667 C20,19.1875 20,18.5416667 19.6041667,18.1458333 Z M2.14583333,8.89583333 C2.14583333,5.1875 5.16666667,2.14583333 8.89583333,2.14583333 C12.625,2.14583333 15.625,5.16666667 15.625,8.89583333 C15.625,12.625 12.6041667,15.625 8.89583333,15.625 C5.1875,15.625 2.14583333,12.6041667 2.14583333,8.89583333 Z" id="Shape"></path>
            </g>
        </g>
    </g>
</svg>