<?xml version="1.0" encoding="UTF-8"?>
<svg width="30px" height="30px" viewBox="0 0 30 30" version="1.1" xmlns="http://www.w3.org/2000/svg" xmlns:xlink="http://www.w3.org/1999/xlink">
    <title>icon_white_fit</title>
    <g id="icon_white_fit" stroke="none" stroke-width="1" fill="none" fill-rule="evenodd">
        <g id="noun_fit_3547821" transform="translate(6.000000, 6.000000)" fill="#FFFFFF" fill-rule="nonzero">
            <path d="M18,9.29032258 L16.2580645,9.29032258 L16.2580645,15.9677419 C16.2580645,16.1280827 16.1280827,16.2580645 15.9677419,16.2580645 L9.29032258,16.2580645 L9.29032258,18 L15.9677419,18 C17.0901271,18 18,17.0901271 18,15.9677419 L18,9.29032258 Z" id="Path"></path>
            <path d="M0.870967742,18 L6.38709677,18 L6.38709677,16.2580645 L2.97290323,16.2580645 L7.32774194,11.9032258 L6.09677419,10.6722581 L1.74193548,15.0270968 L1.74193548,11.6129032 L0,11.6129032 L0,17.1290323 C0,17.6100545 0.38994554,18 0.870967742,18 Z" id="Path"></path>
            <path d="M1.74193548,2.03225806 C1.74193548,1.87191733 1.87191733,1.74193548 2.03225806,1.74193548 L8.70967742,1.74193548 L8.70967742,0 L2.03225806,0 C0.909872928,0 -1.031433e-15,0.909872928 -1.031433e-15,2.03225806 L-1.031433e-15,8.70967742 L1.74193548,8.70967742 L1.74193548,2.03225806 Z" id="Path"></path>
            <path d="M18,0.870967742 C18,0.38994554 17.6100545,0 17.1290323,0 L11.6129032,0 L11.6129032,1.74193548 L15.0270968,1.74193548 L10.6722581,6.09677419 L11.9032258,7.32774194 L16.2580645,2.97290323 L16.2580645,6.38709677 L18,6.38709677 L18,0.870967742 Z" id="Path"></path>
        </g>
    </g>
</svg>