<?xml version="1.0" encoding="UTF-8"?>
<svg width="30px" height="30px" viewBox="0 0 30 30" version="1.1" xmlns="http://www.w3.org/2000/svg" xmlns:xlink="http://www.w3.org/1999/xlink">
    <title>icon_white_less_bright</title>
    <g id="icon_white_less_bright" stroke="none" stroke-width="1" fill="none" fill-rule="evenodd">
        <path d="M14.9140625,22.5539063 C15.4755208,22.5539063 15.9396597,22.9806146 15.9990495,23.5266016 L16.0054687,23.6453125 L16.0054687,24.7367188 C16.0054687,25.3382813 15.515625,25.828125 14.9140625,25.828125 C14.3526042,25.828125 13.8884653,25.4014167 13.8290755,24.8554296 L13.8226563,24.7367188 L13.8226563,23.6453125 C13.8226563,23.04375 14.3125,22.5539063 14.9140625,22.5539063 Z M9.51289063,20.3152344 C9.90789621,20.71024 9.93611089,21.334953 9.59753468,21.7627739 L9.51289063,21.8578125 L8.73945313,22.63125 C8.3140625,23.0566406 7.62226563,23.0566406 7.196875,22.63125 C6.80186942,22.2362444 6.77365474,21.6115314 7.11223095,21.1837105 L7.196875,21.0886719 L7.9703125,20.3152344 C8.39570313,19.8898438 9.0875,19.8898438 9.51289063,20.3152344 Z M21.7627739,20.2305903 L21.8578125,20.3152344 L22.63125,21.0886719 C23.0566406,21.5140625 23.0566406,22.2058594 22.63125,22.63125 C22.2362444,23.0262556 21.6115314,23.0544703 21.1837105,22.7158941 L21.0886719,22.63125 L20.3152344,21.8578125 C19.8898437,21.4324219 19.8898437,20.740625 20.3152344,20.3152344 C20.71024,19.9202288 21.334953,19.8920141 21.7627739,20.2305903 Z M14.9570312,9.5 C17.9708664,9.5 20.4140625,11.9431961 20.4140625,14.9570312 C20.4140625,17.9708664 17.9708664,20.4140625 14.9570312,20.4140625 C11.9431961,20.4140625 9.5,17.9708664 9.5,14.9570312 C9.5,11.9431961 11.9431961,9.5 14.9570312,9.5 Z M17.5583333,14 L12.3708333,14 C11.8083333,14 11.35,14.4583333 11.35,15.0208333 C11.35,15.5833333 11.8083333,16.0416667 12.3708333,16.0416667 L17.5583333,16.0416667 C18.1208333,16.0416667 18.5791667,15.5833333 18.5791667,15.0208333 C18.5791667,14.4583333 18.1416667,14 17.5583333,14 Z M24.7367188,13.8226563 C25.3382813,13.8226563 25.828125,14.3125 25.828125,14.9140625 C25.828125,15.4755208 25.4014167,15.9396597 24.8554296,15.9990495 L24.7367188,16.0054687 L23.6453125,16.0054687 C23.04375,16.0054687 22.5539063,15.515625 22.5539063,14.9140625 C22.5539063,14.3526042 22.9806146,13.8884653 23.5266016,13.8290755 L23.6453125,13.8226563 L24.7367188,13.8226563 Z M6.1828125,13.8226563 C6.784375,13.8226563 7.27421875,14.3125 7.27421875,14.9140625 C7.27421875,15.4755208 6.84751042,15.9396597 6.30152338,15.9990495 L6.1828125,16.0054687 L5.09140625,16.0054687 C4.48984375,16.0054687 4,15.515625 4,14.9140625 C4,14.3526042 4.42670833,13.8884653 4.97269537,13.8290755 L5.09140625,13.8226563 L6.1828125,13.8226563 Z M22.63125,7.196875 C23.0262556,7.59188058 23.0544703,8.21659359 22.7158941,8.64441452 L22.63125,8.73945313 L21.8578125,9.51289063 C21.4324219,9.93828125 20.740625,9.93828125 20.3152344,9.51289063 C19.9202288,9.11788504 19.8920141,8.49317203 20.2305903,8.06535111 L20.3152344,7.9703125 L21.0886719,7.196875 C21.5140625,6.77148438 22.2058594,6.77148438 22.63125,7.196875 Z M8.64441452,7.11223095 L8.73945313,7.196875 L9.51289063,7.9703125 C9.93828125,8.39570313 9.93828125,9.0875 9.51289063,9.51289063 C9.11788504,9.90789621 8.49317203,9.93611089 8.06535111,9.59753468 L7.9703125,9.51289063 L7.196875,8.73945313 C6.77148438,8.3140625 6.77148438,7.62226563 7.196875,7.196875 C7.59188058,6.80186942 8.21659359,6.77365474 8.64441452,7.11223095 Z M14.9140625,4 C15.4755208,4 15.9396597,4.42670833 15.9990495,4.97269537 L16.0054687,5.09140625 L16.0054687,6.1828125 C16.0054687,6.784375 15.515625,7.27421875 14.9140625,7.27421875 C14.3526042,7.27421875 13.8884653,6.84751042 13.8290755,6.30152338 L13.8226563,6.1828125 L13.8226563,5.09140625 C13.8226563,4.48984375 14.3125,4 14.9140625,4 Z" id="Combined-Shape" fill="#FFFFFF" fill-rule="nonzero"></path>
    </g>
</svg>