<?xml version="1.0" encoding="UTF-8"?>
<svg width="30px" height="30px" viewBox="0 0 30 30" version="1.1" xmlns="http://www.w3.org/2000/svg" xmlns:xlink="http://www.w3.org/1999/xlink">
    <title>icon_white_originalsize</title>
    <g id="icon_white_originalsize" stroke="none" stroke-width="1" fill="none" fill-rule="evenodd">
        <g id="Group" transform="translate(6.000000, 6.000000)" fill="#FFFFFF" fill-rule="nonzero">
            <path d="M18,12.2903226 L16.2580645,12.2903226 L16.2580645,15.9677419 C16.2580645,16.1280827 16.1280827,16.2580645 15.9677419,16.2580645 L12.2903226,16.2580645 L12.2903226,18 L15.9677419,18 C17.0901271,18 18,17.0901271 18,15.9677419 L18,12.2903226 Z" id="Path"></path>
            <path d="M1.74193548,2.03225806 C1.74193548,1.87191733 1.87191733,1.74193548 2.03225806,1.74193548 L5.70967742,1.74193548 L5.70967742,0 L2.03225806,0 C0.909872928,0 0,0.909872928 0,2.03225806 L0,5.70967742 L1.74193548,5.70967742 L1.74193548,2.03225806 Z" id="Path"></path>
        </g>
        <g id="Group" transform="translate(15.000000, 15.000000) rotate(-90.000000) translate(-15.000000, -15.000000) translate(6.000000, 6.000000)" fill="#FFFFFF" fill-rule="nonzero">
            <path d="M18,12.2903226 L16.2580645,12.2903226 L16.2580645,15.9677419 C16.2580645,16.1280827 16.1280827,16.2580645 15.9677419,16.2580645 L12.2903226,16.2580645 L12.2903226,18 L15.9677419,18 C17.0901271,18 18,17.0901271 18,15.9677419 L18,12.2903226 Z" id="Path"></path>
            <path d="M1.74193548,2.03225806 C1.74193548,1.87191733 1.87191733,1.74193548 2.03225806,1.74193548 L5.70967742,1.74193548 L5.70967742,0 L2.03225806,0 C0.909872928,0 0,0.909872928 0,2.03225806 L0,5.70967742 L1.74193548,5.70967742 L1.74193548,2.03225806 Z" id="Path"></path>
        </g>
        <g id="Group-2" transform="translate(14.000000, 12.000000)" fill="#FFFFFF" fill-rule="nonzero">
            <circle id="Oval" cx="1" cy="4.66666667" r="1"></circle>
            <circle id="Oval" cx="1" cy="1" r="1"></circle>
        </g>
        <rect id="Rectangle" fill="#FFFFFF" x="10" y="11" width="2" height="8"></rect>
        <rect id="Rectangle" fill="#FFFFFF" x="18" y="11" width="2" height="8"></rect>
    </g>
</svg>