<?xml version="1.0" encoding="UTF-8"?>
<svg width="30px" height="30px" viewBox="0 0 30 30" version="1.1" xmlns="http://www.w3.org/2000/svg" xmlns:xlink="http://www.w3.org/1999/xlink">
    <title>icon_white_more_contrast</title>
    <g id="icon_white_more_contrast" stroke="none" stroke-width="1" fill="none" fill-rule="evenodd">
        <g id="Group-5" transform="translate(6.000000, 6.000000)">
            <circle id="Oval" stroke="#FFFFFF" stroke-width="2" cx="9" cy="9" r="9"></circle>
            <path d="M10.4440218,2.39543979 C13.4722933,3.06101525 15.7384461,5.7599132 15.7384461,8.9880995 C15.7384461,12.7160216 12.7163681,15.7380995 8.98844607,15.7380995 C5.76025977,15.7380995 3.06136181,13.4719467 2.39578636,10.4436752 L10.4440218,2.39543979 Z M8.990625,5.409375 C8.484375,5.409375 8.071875,5.821875 8.071875,6.328125 L8.07778636,8.09343979 L6.31875,8.1 C5.8125,8.1 5.4,8.5125 5.4,9.01875 C5.4,9.525 5.8125,9.9375 6.31875,9.9375 L8.08378636,9.93143979 L8.090625,11.690625 C8.090625,12.196875 8.503125,12.609375 9.009375,12.609375 C9.515625,12.609375 9.928125,12.215625 9.928125,11.690625 L9.92178636,9.92443979 L11.68125,9.91875 C12.1875,9.91875 12.6,9.50625 12.6,9 C12.6,8.49375 12.20625,8.08125 11.68125,8.08125 L9.91478636,8.08643979 L9.909375,6.328125 C9.909375,5.821875 9.496875,5.409375 8.990625,5.409375 Z" id="Combined-Shape" fill="#FFFFFF"></path>
        </g>
    </g>
</svg>